<?xml version="1.0" encoding="utf-8"?>
<svg fill="#FFB600" version="1.1" id="Layer_1" xmlns="http://www.w3.org/2000/svg" xmlns:xlink="http://www.w3.org/1999/xlink" x="0px" y="0px"
	 viewBox="0 0 26 26" style="enable-background:new 0 0 26 26;" xml:space="preserve">
<path d="M21.7,4c-0.8,0-1.5,0.7-1.5,1.5V12c0,0.3-0.2,0.5-0.5,0.5s-0.5-0.2-0.5-0.5V2.5c0-0.8-0.7-1.5-1.5-1.5s-1.5,0.7-1.5,1.5V11
	c0,0.3-0.2,0.5-0.5,0.5s-0.5-0.2-0.5-0.5V1.5c0-0.8-0.7-1.5-1.5-1.5s-1.5,0.7-1.5,1.5V11c0,0.3-0.2,0.5-0.5,0.5s-0.5-0.2-0.5-0.5
	V3.5c0-0.8-0.7-1.5-1.5-1.5S8.2,2.7,8.2,3.5V16l-2-2.8c-0.6-0.9-1.8-1.2-2.6-0.7c-0.9,0.5-1.1,1.7-0.5,2.6c0,0,3.3,4.9,4.7,7.1
	c1.4,2.1,3.6,3.8,7.9,3.8c7,0,7.6-5.4,7.6-7s0-13.5,0-13.5C23.2,4.7,22.6,4,21.7,4z"/>
</svg>

